<svg width="132" height="132" viewBox="0 0 132 132" fill="none" xmlns="http://www.w3.org/2000/svg"><path fill-rule="evenodd" clip-rule="evenodd" d="M132 66c0 36.497-29.601 66-66 66S0 102.497 0 66 29.382 0 66 0c36.618 0 66 29.503 66 66z" fill="#fff"/><path d="M83.103 41.086c-2.412 0-4.385 1.967-4.385 4.59v.437l-20.612 8.304v21.418l20.612 7.43v.219c0 2.404 1.973 4.589 4.385 4.589s4.385-1.967 4.385-4.59V45.458c0-2.404-1.973-4.37-4.385-4.37zm7.455 12.894c-.22 0-.22.219-.22.219-.218.218-.218.437-.438.655v19.014c0 .218.22.218.22.437.219.218.438.218.657.218h.22c5.7 0 10.086-4.59 10.086-10.271 0-5.682-4.605-10.272-10.086-10.272h-.439zm-51.967.656c-1.973 0-3.508 1.53-3.508 3.497v.874c-2.631.437-4.385 2.622-4.385 5.463 0 2.623 1.973 5.027 4.385 5.464V71.9c0 1.967 1.535 3.278 3.508 3.278h.658l-3.947 14.424c-.219.655.439 1.53 1.097 1.53h7.016c.439 0 .877-.219 1.097-.656l1.973-4.808h3.947c.658 0 1.096-.656 1.096-1.093v-7.649c0-.218-.219-.218-.219-.437V54.636H38.591zm14.91 0v20.543h2.413V54.636h-2.412zm-18.418 7.43v4.371c-.877-.655-2.193-1.093-2.193-2.185 0-1.093 1.316-1.53 2.193-2.186zm14.033 16.172v4.808h-1.973l1.973-4.808z" fill="#175DE5"/></svg>