<svg width="140" height="20" viewBox="0 0 140 20" fill="none" xmlns="http://www.w3.org/2000/svg"><path d="M10 0l2.645 6.36 6.866.55-5.231 4.48 1.598 6.7L10 14.5l-5.878 3.59 1.598-6.7L.49 6.91l6.865-.55L10 0zm30 0l2.645 6.36 6.866.55-5.231 4.48 1.598 6.7L40 14.5l-5.878 3.59 1.598-6.7-5.23-4.48 6.865-.55L40 0zm30 0l2.645 6.36 6.866.55-5.231 4.48 1.598 6.7L70 14.5l-5.878 3.59 1.598-6.7-5.23-4.48 6.865-.55L70 0zm30 0l2.645 6.36 6.866.55-5.231 4.48 1.598 6.7L100 14.5l-5.878 3.59 1.598-6.7-5.23-4.48 6.865-.55L100 0zm30 0l2.645 6.36 6.866.55-5.231 4.48 1.598 6.7L130 14.5l-5.878 3.59 1.598-6.7-5.231-4.48 6.866-.55L130 0z" fill="#FB7900"/></svg>